# xmcd
#
# Track frame offsets:
#	150
#	17561
#	35155
#	48487
#	64645
#	85489
#	104635
#	119946
#	136744
#	155539
#	171170
#	185755
#
# Disc length: 2694 seconds
#
# Revision: 0
# Processed by: cddbd v1.5.2PL0 Copyright (c) Steve Scherf et al.
# Submitted via: dBpowerAMP V4.0
#
DISCID=af0a840c
DTITLE=too short - too short
DYEAR=1900
DGENRE=
TTITLE0=yo
TTITLE1=yoo
TTITLE2=yoo03
TTITLE3=yo04
TTITLE4=yo05
TTITLE5=yo06
TTITLE6=yo07
TTITLE7=yo08
TTITLE8=yo09
TTITLE9=yo10
TTITLE10=yo11
TTITLE11=bitch
EXTD=yoo short
EXTT0=
EXTT1=
EXTT2=
EXTT3=
EXTT4=
EXTT5=
EXTT6=
EXTT7=
EXTT8=
EXTT9=
EXTT10=
EXTT11=
PLAYORDER=
